<?xml version="1.0" encoding="UTF-8" standalone="no"?>
<!DOCTYPE svg PUBLIC "-//W3C//DTD SVG 1.1//EN" "http://www.w3.org/Graphics/SVG/1.1/DTD/svg11.dtd">
<svg width="100%" height="100%" viewBox="0 0 1080 1080" version="1.1" xmlns="http://www.w3.org/2000/svg" xmlns:xlink="http://www.w3.org/1999/xlink" xml:space="preserve" xmlns:serif="http://www.serif.com/" style="fill-rule:evenodd;clip-rule:evenodd;stroke-linejoin:round;stroke-miterlimit:2;">
    <g transform="matrix(48.885,0,0,48.885,-70.3174,-46.4858)">
        <path d="M5.988,10.817C6.24,10.802 6.493,10.787 6.743,10.751C7.296,10.671 7.942,10.508 8.45,10.286C10.05,9.585 11.096,8.276 11.261,6.514C11.273,6.379 11.174,6.26 11.039,6.247C10.904,6.234 10.784,6.334 10.772,6.469C10.625,8.044 9.684,9.209 8.253,9.836C7.783,10.042 7.185,10.191 6.672,10.265C6.436,10.299 6.197,10.313 5.959,10.327C5.823,10.335 5.72,10.451 5.728,10.587C5.736,10.722 5.852,10.825 5.988,10.817Z" style="fill:white;"/>
        <path d="M6.019,11.348C6.286,11.332 6.554,11.315 6.819,11.277C7.417,11.191 8.114,11.013 8.664,10.773C10.447,9.992 11.607,8.528 11.79,6.564C11.83,6.137 11.516,5.757 11.089,5.718C10.661,5.678 10.282,5.992 10.242,6.419C10.114,7.792 9.287,8.803 8.04,9.349C7.61,9.537 7.064,9.671 6.596,9.738C6.375,9.771 6.151,9.783 5.927,9.796C5.499,9.822 5.172,10.19 5.197,10.618C5.223,11.046 5.591,11.373 6.019,11.348L6.019,11.348ZM5.988,10.817C6.24,10.802 6.493,10.787 6.743,10.751C7.296,10.671 7.942,10.508 8.45,10.286C10.05,9.585 11.096,8.276 11.261,6.514C11.273,6.379 11.174,6.26 11.039,6.247C10.904,6.234 10.784,6.334 10.772,6.469C10.625,8.044 9.684,9.209 8.253,9.836C7.783,10.042 7.185,10.191 6.672,10.265C6.436,10.299 6.197,10.313 5.959,10.327C5.823,10.335 5.72,10.451 5.728,10.587C5.736,10.722 5.852,10.825 5.988,10.817Z" style="fill:url(#_Linear1);"/>
        <path d="M18.958,14.483C18.778,14.511 18.598,14.54 18.415,14.548C17.999,14.565 17.516,14.516 17.119,14.397C15.633,13.95 14.664,12.763 14.113,11.364C14.063,11.238 13.921,11.176 13.795,11.226C13.669,11.276 13.607,11.418 13.656,11.544C14.263,13.083 15.343,14.376 16.978,14.867C17.424,15.001 17.967,15.057 18.436,15.038C18.636,15.03 18.836,14.999 19.034,14.968C19.168,14.947 19.26,14.822 19.239,14.688C19.218,14.554 19.092,14.462 18.958,14.483Z" style="fill:white;"/>
        <path d="M18.876,13.958C18.716,13.983 18.556,14.009 18.394,14.016C18.033,14.031 17.615,13.991 17.272,13.888C15.947,13.489 15.099,12.416 14.608,11.169C14.45,10.77 13.999,10.574 13.599,10.731C13.2,10.888 13.004,11.34 13.161,11.739C13.828,13.43 15.028,14.836 16.825,15.376C17.324,15.527 17.932,15.591 18.458,15.57C18.678,15.56 18.898,15.528 19.116,15.494C19.54,15.428 19.83,15.03 19.764,14.606C19.698,14.182 19.3,13.892 18.876,13.958ZM18.958,14.483C18.778,14.511 18.598,14.54 18.415,14.548C17.999,14.565 17.516,14.516 17.119,14.397C15.633,13.95 14.664,12.763 14.113,11.364C14.063,11.238 13.921,11.176 13.795,11.226C13.669,11.276 13.607,11.418 13.656,11.544C14.263,13.083 15.343,14.376 16.978,14.867C17.424,15.001 17.967,15.057 18.436,15.038C18.636,15.03 18.836,14.999 19.034,14.968C19.168,14.947 19.26,14.822 19.239,14.688C19.218,14.554 19.092,14.462 18.958,14.483Z" style="fill:url(#_Linear2);"/>
        <path d="M11.322,13.149C11.349,13.302 11.375,13.455 11.386,13.61C11.413,13.981 11.392,14.411 11.322,14.772C11.068,16.075 10.314,17.167 9.26,17.965C9.152,18.047 9.131,18.201 9.213,18.309C9.294,18.417 9.449,18.438 9.557,18.357C10.708,17.485 11.527,16.289 11.804,14.866C11.882,14.465 11.906,13.986 11.876,13.574C11.864,13.404 11.835,13.235 11.806,13.067C11.784,12.933 11.657,12.843 11.523,12.866C11.39,12.889 11.3,13.016 11.322,13.149Z" style="fill:white;"/>
        <path d="M10.798,13.239C10.821,13.375 10.846,13.511 10.856,13.648C10.88,13.974 10.862,14.353 10.8,14.671C10.571,15.843 9.888,16.823 8.939,17.541C8.597,17.8 8.53,18.288 8.789,18.63C9.048,18.972 9.536,19.04 9.878,18.781C11.134,17.829 12.023,16.521 12.326,14.968C12.413,14.523 12.44,13.992 12.407,13.535C12.393,13.348 12.362,13.162 12.331,12.977C12.258,12.554 11.856,12.27 11.433,12.342C11.011,12.414 10.726,12.816 10.798,13.239ZM11.322,13.149C11.349,13.302 11.375,13.455 11.386,13.61C11.413,13.981 11.392,14.411 11.322,14.772C11.068,16.075 10.314,17.167 9.26,17.965C9.152,18.047 9.131,18.201 9.213,18.309C9.294,18.417 9.449,18.438 9.557,18.357C10.708,17.485 11.527,16.289 11.804,14.866C11.882,14.465 11.906,13.986 11.876,13.574C11.864,13.404 11.835,13.235 11.806,13.067C11.784,12.933 11.657,12.843 11.523,12.866C11.39,12.889 11.3,13.016 11.322,13.149Z" style="fill:url(#_Linear3);"/>
        <path d="M15.973,6.418C15.973,6.557 15.974,6.698 15.952,6.836C15.892,7.219 15.848,7.608 15.727,7.977C15.419,8.909 15.075,9.655 14.486,10.411C12.459,13.015 9.104,14.085 5.943,14.482C5.808,14.499 5.713,14.622 5.73,14.756C5.747,14.891 5.87,14.986 6.004,14.969C9.29,14.557 12.766,13.419 14.874,10.713C15.498,9.911 15.866,9.12 16.193,8.13C16.323,7.737 16.372,7.322 16.437,6.913C16.463,6.75 16.464,6.584 16.464,6.419C16.465,6.283 16.355,6.173 16.219,6.173C16.084,6.173 15.974,6.283 15.973,6.418Z" style="fill:white;"/>
        <path d="M15.442,6.417C15.441,6.529 15.444,6.642 15.427,6.752C15.371,7.107 15.334,7.469 15.222,7.81C14.934,8.68 14.616,9.379 14.067,10.084C12.126,12.576 8.902,13.574 5.876,13.955C5.451,14.008 5.149,14.397 5.202,14.823C5.256,15.248 5.645,15.551 6.07,15.497C9.491,15.067 13.099,13.858 15.293,11.04C15.957,10.187 16.351,9.349 16.698,8.297C16.837,7.877 16.893,7.433 16.962,6.996C16.993,6.806 16.996,6.612 16.996,6.42C16.997,5.99 16.649,5.642 16.22,5.641C15.791,5.64 15.442,5.988 15.442,6.417ZM15.973,6.418C15.973,6.557 15.974,6.698 15.952,6.836C15.892,7.219 15.848,7.608 15.727,7.977C15.419,8.909 15.075,9.655 14.486,10.411C12.459,13.015 9.104,14.085 5.943,14.482C5.808,14.499 5.713,14.622 5.73,14.756C5.747,14.891 5.87,14.986 6.004,14.969C9.29,14.557 12.766,13.419 14.874,10.713C15.498,9.911 15.866,9.12 16.193,8.13C16.323,7.737 16.372,7.322 16.437,6.913C16.463,6.75 16.464,6.584 16.464,6.419C16.465,6.283 16.355,6.173 16.219,6.173C16.084,6.173 15.974,6.283 15.973,6.418Z" style="fill:url(#_Linear4);"/>
        <path d="M11.262,6.246L11.262,3.617C11.262,3.607 11.261,3.598 11.26,3.589C11.234,3.364 11.204,3.133 11.108,2.928C10.876,2.433 10.447,2.202 9.896,2.202C9.343,2.202 8.911,2.434 8.663,2.92C8.56,3.123 8.519,3.354 8.484,3.579C8.482,3.592 8.481,3.605 8.481,3.619L8.503,6.179C7.708,6.222 7.144,6.467 6.74,6.79C5.729,7.6 5.727,8.93 5.728,9.026C5.728,9.026 5.728,14.726 5.728,14.726C5.728,14.791 5.754,14.853 5.8,14.899L9.235,18.334C9.281,18.38 9.343,18.406 9.408,18.406L11.039,18.406C11.039,19.185 11.039,21.547 11.039,21.547C11.039,21.683 11.149,21.793 11.284,21.793L13.685,21.793C13.821,21.793 13.931,21.683 13.931,21.547L13.931,18.406C13.931,18.406 15.561,18.406 15.561,18.406C15.626,18.406 15.689,18.38 15.735,18.334L19.17,14.899C19.216,14.853 19.242,14.791 19.242,14.726L19.242,9.026C19.243,8.943 19.245,7.604 18.229,6.79C17.826,6.467 17.261,6.222 16.467,6.179C16.467,6.179 16.489,3.619 16.489,3.619C16.489,3.605 16.488,3.592 16.486,3.579C16.451,3.354 16.41,3.123 16.307,2.92C16.058,2.434 15.627,2.202 15.074,2.202C14.523,2.202 14.094,2.433 13.862,2.928C13.766,3.133 13.735,3.364 13.709,3.589C13.708,3.598 13.708,3.607 13.708,3.617L13.708,6.246L11.262,6.246ZM10.967,6.732C10.855,6.709 10.771,6.61 10.771,6.491C10.771,6.491 10.771,3.631 10.771,3.631C10.752,3.463 10.735,3.289 10.663,3.136C10.517,2.826 10.241,2.693 9.896,2.693C9.541,2.693 9.259,2.832 9.1,3.144C9.023,3.294 8.998,3.467 8.972,3.635L8.996,6.416C8.997,6.482 8.971,6.545 8.925,6.591C8.879,6.638 8.816,6.664 8.751,6.664C7.967,6.664 7.423,6.872 7.047,7.173C6.184,7.865 6.219,9.018 6.219,9.018C6.219,9.021 6.219,9.023 6.219,9.025C6.219,9.025 6.219,13.858 6.219,14.624C6.219,14.624 9.51,17.915 9.51,17.915L11.284,17.915C11.42,17.915 11.53,18.025 11.53,18.161C11.53,18.161 11.53,20.523 11.53,21.302C11.53,21.302 13.44,21.302 13.44,21.302L13.44,18.161C13.44,18.025 13.55,17.915 13.685,17.915C13.685,17.915 15.46,17.915 15.46,17.915C15.947,17.428 18.751,14.624 18.751,14.624L18.751,9.025C18.751,9.023 18.751,9.021 18.751,9.018C18.751,9.018 18.785,7.865 17.922,7.173C17.547,6.872 17.002,6.664 16.219,6.664C16.153,6.664 16.091,6.638 16.045,6.591C15.999,6.545 15.973,6.482 15.973,6.416C15.973,6.416 15.998,3.635 15.998,3.635C15.972,3.467 15.946,3.294 15.869,3.144C15.71,2.832 15.428,2.693 15.074,2.693C14.728,2.693 14.452,2.826 14.307,3.136C14.235,3.289 14.218,3.463 14.199,3.631L14.199,6.491C14.199,6.627 14.089,6.737 13.953,6.737L11.016,6.737L11.004,6.737L10.991,6.736L10.979,6.734L10.967,6.732Z" style="fill:white;"/>
        <path d="M5.196,9.025L5.196,9.028C5.196,9.038 5.196,9.094 5.196,9.186C5.196,10.109 5.196,14.726 5.196,14.726C5.196,14.932 5.278,15.13 5.424,15.275C5.424,15.275 8.859,18.71 8.859,18.71C9.004,18.856 9.202,18.938 9.408,18.938L10.507,18.938C10.507,18.938 10.507,21.547 10.507,21.547C10.507,21.976 10.855,22.324 11.284,22.324C11.284,22.324 13.685,22.324 13.685,22.324C14.115,22.324 14.463,21.976 14.463,21.547L14.463,18.938L15.561,18.938C15.767,18.938 15.965,18.856 16.111,18.71C16.111,18.71 19.546,15.275 19.546,15.275C19.692,15.13 19.774,14.932 19.774,14.726C19.774,14.726 19.774,9.029 19.774,9.029C19.775,8.895 19.756,7.332 18.562,6.375C18.179,6.068 17.675,5.815 17.003,5.703L17.021,3.624C17.021,3.581 17.018,3.538 17.011,3.496C16.967,3.216 16.909,2.931 16.78,2.679C16.436,2.003 15.842,1.67 15.074,1.67C14.3,1.67 13.706,2.007 13.38,2.702C13.26,2.959 13.213,3.247 13.181,3.528C13.178,3.558 13.176,3.587 13.176,3.617L13.176,5.714L11.794,5.714L11.794,3.617C11.794,3.587 11.792,3.558 11.789,3.528C11.756,3.247 11.709,2.959 11.589,2.702C11.263,2.007 10.669,1.67 9.896,1.67C9.128,1.67 8.534,2.003 8.189,2.679C8.06,2.931 8.002,3.216 7.958,3.496C7.952,3.538 7.949,3.581 7.949,3.624C7.949,3.624 7.967,5.703 7.967,5.703C7.295,5.815 6.79,6.068 6.408,6.375C5.227,7.321 5.195,8.86 5.196,9.025ZM11.262,6.246L11.262,3.617C11.262,3.607 11.261,3.598 11.26,3.589C11.234,3.364 11.204,3.133 11.108,2.928C10.876,2.433 10.447,2.202 9.896,2.202C9.343,2.202 8.911,2.434 8.663,2.92C8.56,3.123 8.519,3.354 8.484,3.579C8.482,3.592 8.481,3.605 8.481,3.619L8.503,6.179C7.708,6.222 7.144,6.467 6.74,6.79C5.729,7.6 5.727,8.93 5.728,9.026C5.728,9.026 5.728,14.726 5.728,14.726C5.728,14.791 5.754,14.853 5.8,14.899L9.235,18.334C9.281,18.38 9.343,18.406 9.408,18.406L11.039,18.406C11.039,19.185 11.039,21.547 11.039,21.547C11.039,21.683 11.149,21.793 11.284,21.793L13.685,21.793C13.821,21.793 13.931,21.683 13.931,21.547L13.931,18.406C13.931,18.406 15.561,18.406 15.561,18.406C15.626,18.406 15.689,18.38 15.735,18.334L19.17,14.899C19.216,14.853 19.242,14.791 19.242,14.726L19.242,9.026C19.243,8.943 19.245,7.604 18.229,6.79C17.826,6.467 17.261,6.222 16.467,6.179C16.467,6.179 16.489,3.619 16.489,3.619C16.489,3.605 16.488,3.592 16.486,3.579C16.451,3.354 16.41,3.123 16.307,2.92C16.058,2.434 15.627,2.202 15.074,2.202C14.523,2.202 14.094,2.433 13.862,2.928C13.766,3.133 13.735,3.364 13.709,3.589C13.708,3.598 13.708,3.607 13.708,3.617L13.708,6.246L11.262,6.246ZM10.967,6.732C10.855,6.709 10.771,6.61 10.771,6.491C10.771,6.491 10.771,3.631 10.771,3.631C10.752,3.463 10.735,3.289 10.663,3.136C10.517,2.826 10.241,2.693 9.896,2.693C9.541,2.693 9.259,2.832 9.1,3.144C9.023,3.294 8.998,3.467 8.972,3.635L8.996,6.416C8.997,6.482 8.971,6.545 8.925,6.591C8.879,6.638 8.816,6.664 8.751,6.664C7.967,6.664 7.423,6.872 7.047,7.173C6.184,7.865 6.219,9.018 6.219,9.018C6.219,9.021 6.219,9.023 6.219,9.025C6.219,9.025 6.219,13.858 6.219,14.624C6.219,14.624 9.51,17.915 9.51,17.915L11.284,17.915C11.42,17.915 11.53,18.025 11.53,18.161C11.53,18.161 11.53,20.523 11.53,21.302C11.53,21.302 13.44,21.302 13.44,21.302L13.44,18.161C13.44,18.025 13.55,17.915 13.685,17.915C13.685,17.915 15.46,17.915 15.46,17.915C15.947,17.428 18.751,14.624 18.751,14.624L18.751,9.025C18.751,9.023 18.751,9.021 18.751,9.018C18.751,9.018 18.785,7.865 17.922,7.173C17.547,6.872 17.002,6.664 16.219,6.664C16.153,6.664 16.091,6.638 16.045,6.591C15.999,6.545 15.973,6.482 15.973,6.416C15.973,6.416 15.998,3.635 15.998,3.635C15.972,3.467 15.946,3.294 15.869,3.144C15.71,2.832 15.428,2.693 15.074,2.693C14.728,2.693 14.452,2.826 14.307,3.136C14.235,3.289 14.218,3.463 14.199,3.631L14.199,6.491C14.199,6.627 14.089,6.737 13.953,6.737L11.016,6.737L11.004,6.737L10.991,6.736L10.979,6.734L10.967,6.732ZM15.466,3.676C15.466,3.686 15.465,3.697 15.465,3.708C15.461,4.159 15.442,6.412 15.442,6.412C15.44,6.619 15.521,6.818 15.667,6.966C15.813,7.113 16.012,7.196 16.219,7.196C16.847,7.196 17.289,7.347 17.59,7.588C18.25,8.117 18.219,9.002 18.219,9.002L18.219,9.025L18.219,14.404L15.239,17.383L13.685,17.383C13.256,17.383 12.908,17.732 12.908,18.161L12.908,20.77L12.062,20.77C12.062,19.77 12.062,18.161 12.062,18.161C12.062,17.732 11.714,17.383 11.284,17.383L9.73,17.383L6.751,14.404C6.751,13.199 6.751,9.025 6.751,9.025L6.75,9.002C6.75,9.002 6.719,8.117 7.38,7.588C7.681,7.347 8.122,7.196 8.751,7.196C8.958,7.196 9.157,7.113 9.303,6.966C9.449,6.818 9.53,6.619 9.528,6.412C9.528,6.412 9.504,3.671 9.504,3.671C9.518,3.573 9.529,3.473 9.574,3.385C9.636,3.263 9.756,3.225 9.896,3.225C10.019,3.225 10.129,3.251 10.181,3.362C10.226,3.457 10.229,3.566 10.24,3.671C10.239,3.684 10.239,3.697 10.239,3.711C10.239,4.174 10.239,6.491 10.239,6.491C10.239,6.867 10.506,7.18 10.86,7.253C10.864,7.254 10.869,7.255 10.873,7.256L10.885,7.258C10.894,7.259 10.903,7.261 10.912,7.262L10.924,7.263C10.933,7.264 10.942,7.265 10.951,7.266L10.963,7.267C10.972,7.268 10.981,7.268 10.99,7.268L11.003,7.269C11.007,7.269 11.012,7.269 11.016,7.269L13.953,7.269C14.383,7.269 14.731,6.921 14.731,6.491C14.731,6.491 14.731,3.951 14.731,3.658C14.74,3.557 14.745,3.453 14.788,3.362C14.84,3.251 14.95,3.225 15.074,3.225C15.213,3.225 15.333,3.263 15.396,3.385C15.441,3.474 15.452,3.576 15.466,3.676Z" style="fill:url(#_Linear5);"/>
    </g>
    <defs>
        <linearGradient id="_Linear1" x1="0" y1="0" x2="1" y2="0" gradientUnits="userSpaceOnUse" gradientTransform="matrix(13.5141,0,0,19.5907,5.72767,11.9973)"><stop offset="0" style="stop-color:rgb(70,87,136);stop-opacity:1"/><stop offset="1" style="stop-color:rgb(147,192,147);stop-opacity:1"/></linearGradient>
        <linearGradient id="_Linear2" x1="0" y1="0" x2="1" y2="0" gradientUnits="userSpaceOnUse" gradientTransform="matrix(13.5141,0,0,19.5907,5.72767,11.9973)"><stop offset="0" style="stop-color:rgb(70,87,136);stop-opacity:1"/><stop offset="1" style="stop-color:rgb(147,192,147);stop-opacity:1"/></linearGradient>
        <linearGradient id="_Linear3" x1="0" y1="0" x2="1" y2="0" gradientUnits="userSpaceOnUse" gradientTransform="matrix(13.5141,0,0,19.5907,5.72767,11.9973)"><stop offset="0" style="stop-color:rgb(70,87,136);stop-opacity:1"/><stop offset="1" style="stop-color:rgb(147,192,147);stop-opacity:1"/></linearGradient>
        <linearGradient id="_Linear4" x1="0" y1="0" x2="1" y2="0" gradientUnits="userSpaceOnUse" gradientTransform="matrix(13.5141,0,0,19.5907,5.72767,11.9973)"><stop offset="0" style="stop-color:rgb(70,87,136);stop-opacity:1"/><stop offset="1" style="stop-color:rgb(147,192,147);stop-opacity:1"/></linearGradient>
        <linearGradient id="_Linear5" x1="0" y1="0" x2="1" y2="0" gradientUnits="userSpaceOnUse" gradientTransform="matrix(13.5141,0,0,19.5907,5.72767,11.9973)"><stop offset="0" style="stop-color:rgb(70,87,136);stop-opacity:1"/><stop offset="1" style="stop-color:rgb(147,192,147);stop-opacity:1"/></linearGradient>
    </defs>
</svg>
